<svg width="16" height="16" viewBox="0 0 16 16" fill="none" xmlns="http://www.w3.org/2000/svg">
  <path d="M7.99495 16C12.376 16 16 12.376 16 8.00504C16 3.62397 12.3659 0 7.99495 0C3.61388 0 0 3.62397 0 8.00504C0 12.376 3.62397 16 7.99495 16ZM7.99495 14.8189C4.21956 14.8189 1.19118 11.7804 1.19118 8.00504C1.19118 4.21957 4.20947 1.18107 7.99495 1.18107C11.7703 1.18107 14.8088 4.21957 14.8189 8.00504C14.8189 11.7804 11.7804 14.8189 7.99495 14.8189ZM7.94448 5.09779C8.46939 5.09779 8.88328 4.67381 8.88328 4.1489C8.88328 3.62397 8.46939 3.2 7.94448 3.2C7.41955 3.2 6.99558 3.62397 6.99558 4.1489C6.99558 4.67381 7.41955 5.09779 7.94448 5.09779ZM6.5918 12.3356H9.83217C10.1148 12.3356 10.3369 12.1237 10.3369 11.8309C10.3369 11.5584 10.1148 11.3363 9.83217 11.3363H8.76215V7.10662C8.76215 6.73313 8.57034 6.48076 8.21703 6.48076H6.71292C6.43029 6.48076 6.1981 6.70284 6.1981 6.97541C6.1981 7.25804 6.43029 7.47003 6.71292 7.47003H7.66183V11.3363H6.5918C6.30914 11.3363 6.08707 11.5584 6.08707 11.8309C6.08707 12.1237 6.30914 12.3356 6.5918 12.3356Z" fill="black"/>
</svg>
