<svg width="19" height="16" viewBox="0 0 19 16" fill="none" xmlns="http://www.w3.org/2000/svg">
  <path d="M2.48866 16H15.8932C17.5594 16 18.3712 15.1989 18.3712 13.5541V5.35114C18.3712 3.70626 17.5594 2.89452 15.8932 2.89452H13.992V2.25366C13.992 0.694253 13.223 0 11.7276 0H6.64353C5.22297 0 4.37919 0.694253 4.37919 2.25366V2.89452H2.48866C0.833108 2.89452 0 3.70626 0 5.35114V13.5541C0 15.1989 0.833108 16 2.48866 16ZM5.53272 2.1789C5.53272 1.43123 5.88518 1.06809 6.63285 1.06809H11.749C12.4967 1.06809 12.8492 1.43123 12.8492 2.1789V2.89452H5.53272V2.1789ZM1.18557 5.40453C1.18557 4.50733 1.63418 4.0801 2.49933 4.0801H15.8825C16.7477 4.0801 17.1856 4.50733 17.1856 5.40453V7.6582H1.18557V5.40453ZM2.49933 14.8251C1.63418 14.8251 1.18557 14.3872 1.18557 13.5007V8.76903H5.78906V9.30308C5.78906 10.0294 6.2163 10.4566 6.95327 10.4566H11.4286C12.1656 10.4566 12.5928 10.0294 12.5928 9.30308V8.76903H17.1856V13.5007C17.1856 14.3872 16.7477 14.8251 15.8825 14.8251H2.49933Z" fill="black"/>
</svg>
