<svg width="16" height="16" viewBox="0 0 16 16" fill="none" xmlns="http://www.w3.org/2000/svg">
  <path d="M3.00288 0.838216H12.426C12.3892 0.294761 12.076 0 11.4957 0H3.93321C3.35292 0 3.03972 0.294761 3.00288 0.838216ZM1.60276 2.76338H13.8261C13.734 2.18306 13.4577 1.85146 12.8221 1.85146H2.6068C1.98043 1.85146 1.69488 2.18306 1.60276 2.76338ZM2.19228 16H13.2274C14.6828 16 15.4289 15.2631 15.4289 13.8261V6.13471C15.4289 4.69775 14.6828 3.96085 13.2274 3.96085H2.19228C0.736909 3.96085 0 4.68854 0 6.13471V13.8261C0 15.2631 0.736909 16 2.19228 16ZM2.21071 14.9683C1.44617 14.9683 1.02245 14.563 1.02245 13.7709V6.18998C1.02245 5.39782 1.44617 4.9833 2.21071 4.9833H13.209C13.9643 4.9833 14.3972 5.39782 14.3972 6.18998V13.7709C14.3972 14.563 13.9643 14.9683 13.209 14.9683H12.3155C11.6799 13.5498 10.1324 12.1313 7.70986 12.1313C5.27806 12.1313 3.73057 13.5498 3.1042 14.9683H2.21071ZM7.70986 11.1272C8.92574 11.1364 9.90214 10.0311 9.90214 8.71388C9.90214 7.42428 8.92574 6.3742 7.70986 6.3742C6.49397 6.3742 5.50834 7.42428 5.50834 8.71388C5.51757 10.0311 6.49397 11.1088 7.70986 11.1272Z" fill="black"/>
</svg>
