<svg width="16" height="16" viewBox="0 0 16 16" fill="none" xmlns="http://www.w3.org/2000/svg">
  <path d="M7.99495 16C12.376 16 16 12.376 16 8.00505C16 3.62398 12.3659 0 7.99495 0C3.61388 0 0 3.62398 0 8.00505C0 12.376 3.62397 16 7.99495 16ZM7.99495 14.8189C4.21956 14.8189 1.19118 11.7804 1.19118 8.00505C1.19118 4.21957 4.20947 1.18107 7.99495 1.18107C11.7703 1.18107 14.8088 4.21957 14.8189 8.00505C14.8189 11.7804 11.7805 14.8189 7.99495 14.8189ZM11.3968 4.44165C10.4782 3.52303 9.32744 3.59369 8.26751 4.65364L7.04606 5.865C5.97603 6.93501 5.89528 8.09591 6.82399 9.01451C7.10662 9.29716 7.40947 9.47886 7.65174 9.51924C7.84353 9.37791 8.0757 9.12555 8.18674 8.88329C7.82334 8.84292 7.55079 8.72177 7.32872 8.50978C6.73312 7.9041 6.81388 7.11671 7.57097 6.35962L8.76216 5.16845C9.49905 4.43156 10.2864 4.36089 10.882 4.95647C11.4877 5.55206 11.4271 6.34953 10.6801 7.07634L9.79179 7.95458C9.89275 8.22713 9.90283 8.62082 9.78171 8.98422L11.1949 7.57098C12.2448 6.51105 12.3256 5.36027 11.3968 4.44165ZM4.3104 11.5382C5.22902 12.4568 6.37981 12.376 7.43975 11.3262L8.66121 10.1047C9.73122 9.0448 9.81199 7.87383 8.88328 6.95521C8.60063 6.67256 8.2978 6.49085 8.05552 6.45048C7.85362 6.5918 7.62146 6.84417 7.52051 7.08645C7.88391 7.12682 8.15648 7.24795 8.36846 7.47003C8.97412 8.06562 8.89337 8.86309 8.13628 9.6101L6.93502 10.8114C6.2082 11.5382 5.42081 11.6088 4.82524 11.0133C4.21956 10.4278 4.28013 9.62019 5.02712 8.89338L5.91545 8.01516C5.8145 7.74259 5.80442 7.3489 5.92554 6.99559L4.5123 8.39874C3.46246 9.45869 3.38171 10.6095 4.3104 11.5382Z" fill="black"/>
</svg>
