<svg width="13" height="16" viewBox="0 0 13 16" fill="none" xmlns="http://www.w3.org/2000/svg">
  <path d="M2.25434 16H10.2304C11.7206 16 12.4752 15.2358 12.4752 13.717V2.27343C12.4752 0.76417 11.7206 0 10.2304 0H2.25434C0.764185 0 0 0.76417 0 2.27343V13.717C0 15.2358 0.754619 16 2.25434 16ZM2.30209 14.9301C1.49015 14.9301 1.06029 14.5003 1.06029 13.6979V2.29253C1.06029 1.50925 1.49015 1.0603 2.31164 1.0603H10.1731C10.9946 1.0603 11.4149 1.4997 11.4149 2.29253V13.6979C11.4149 14.5003 10.9946 14.9301 10.1731 14.9301H2.30209ZM2.83702 7.0209C3.01851 7.0209 3.13313 6.93492 3.19045 6.70566L3.48657 5.88418H4.94806L5.25373 6.70566C5.31105 6.92538 5.42567 7.0209 5.59761 7.0209C5.83642 7.0209 5.9606 6.89672 5.9606 6.68657C5.9606 6.62925 5.94149 6.54327 5.91283 6.45731L4.74746 3.30507C4.65194 3.02806 4.48955 2.89433 4.21253 2.89433C3.94507 2.89433 3.7827 3.02806 3.68717 3.30507L2.52178 6.45731C2.49314 6.54327 2.47403 6.62925 2.47403 6.68657C2.47403 6.89672 2.61731 7.0209 2.83702 7.0209ZM7.31702 4.16477H9.65732C9.89613 4.16477 10.0776 3.98328 10.0776 3.75402C10.0776 3.52478 9.89613 3.34328 9.65732 3.34328H7.31702C7.06865 3.34328 6.88717 3.52478 6.88717 3.75402C6.88717 3.98328 7.06865 4.16477 7.31702 4.16477ZM3.64896 5.31104L4.19344 3.68715H4.24119L4.78567 5.31104H3.64896ZM7.31702 6.79164H9.65732C9.89613 6.79164 10.0776 6.60059 10.0776 6.37133C10.0776 6.14209 9.89613 5.96059 9.65732 5.96059H7.31702C7.06865 5.96059 6.88717 6.14209 6.88717 6.37133C6.88717 6.60059 7.06865 6.79164 7.31702 6.79164ZM2.26388 13.1152H2.73195L3.7827 12.0836C3.93552 11.9403 4.08837 11.883 4.24119 11.883C4.40359 11.883 4.56598 11.9403 4.7188 12.0836L5.34926 12.6567L6.93492 11.2525C7.11643 11.0997 7.29791 11.0233 7.4794 11.0233C7.68 11.0233 7.88059 11.0901 8.02387 11.2525L9.6 13.0579H10.0776V9.33254C10.0776 8.67343 9.73374 8.3391 9.07462 8.3391H3.26686C2.62688 8.3391 2.26388 8.67343 2.26388 9.33254V13.1152ZM4.77612 11.2525C4.31761 11.2525 3.93552 10.8609 3.93552 10.4119C3.93552 9.95343 4.31761 9.56178 4.77612 9.57135C5.23462 9.5809 5.61673 9.95343 5.61673 10.4119C5.61673 10.8609 5.23462 11.2525 4.77612 11.2525Z" fill="black"/>
</svg>
