<svg width="13" height="16" viewBox="0 0 13 16" fill="none" xmlns="http://www.w3.org/2000/svg">
  <path d="M0 10.9311C0 13.9743 2.32438 16 5.81564 16C9.74563 16 12.3687 13.3489 12.3687 9.36289C12.3687 2.74446 6.72112 0 2.88448 0C2.11902 0 1.61493 0.270708 1.61493 0.802796C1.61493 1.00816 1.70829 1.22287 1.86698 1.40956C2.7258 2.4364 3.59394 3.63126 3.6126 5.03151C3.6126 5.16218 3.6126 5.28354 3.59394 5.41423C3.19254 4.64877 2.50175 4.09801 1.80164 4.09801C1.44691 4.09801 1.20421 4.35939 1.20421 4.74213C1.20421 4.92881 1.2602 5.3769 1.2602 5.69429C1.2602 7.22521 0 8.25205 0 10.9311ZM1.21354 10.9311C1.21354 8.66278 2.46442 7.71996 2.52976 5.6196C2.94049 6.14236 3.23921 6.78646 3.34189 7.70128C3.36057 7.8413 3.44457 7.90665 3.57526 7.90665C4.27538 7.90665 4.67677 6.14236 4.67677 5.03151C4.67677 3.60326 4.07001 2.10969 3.1272 1.1482C8.13068 1.5496 11.1085 4.95682 11.1085 9.31623C11.1085 12.6021 9.02683 14.7958 5.90898 14.7958C3.08984 14.7958 1.21354 13.2462 1.21354 10.9311ZM6.01166 13.9463C7.80396 13.9463 8.68145 12.6301 8.68145 11.1365C8.68145 9.66161 7.83197 8.00933 6.17036 7.24387C6.10501 7.21586 6.05834 7.2532 6.06767 7.32789C6.16103 8.5881 6.08635 9.59626 5.70361 10.2684C5.66628 10.3337 5.61026 10.3244 5.58227 10.2497C5.4049 9.81098 5.1902 9.43757 4.8448 9.12952C4.7888 9.08285 4.74212 9.10151 4.73279 9.17619C4.61143 10.0257 3.66861 10.5017 3.66861 11.8273C3.66861 13.0969 4.6021 13.9463 6.01166 13.9463Z" fill="black"/>
</svg>
