<svg width="16" height="16" viewBox="0 0 16 16" fill="none" xmlns="http://www.w3.org/2000/svg">
  <path d="M7.99495 16C12.376 16 16 12.376 16 8.00504C16 3.62397 12.3659 0 7.99495 0C3.61388 0 0 3.62397 0 8.00504C0 12.376 3.62397 16 7.99495 16ZM7.99495 14.8189C4.21956 14.8189 1.19118 11.7804 1.19118 8.00504C1.19118 4.21957 4.20947 1.18107 7.99495 1.18107C11.7703 1.18107 14.8088 4.21957 14.8189 8.00504C14.8189 11.7804 11.7804 14.8189 7.99495 14.8189ZM4.81515 12.4063C4.98674 12.5476 5.19873 12.4972 5.46121 12.3054L7.99495 10.4479L10.5388 12.3054C10.8013 12.4972 11.0032 12.5375 11.1849 12.4063C11.3565 12.2852 11.3868 12.0732 11.2858 11.7703L10.2864 8.78234L12.8404 6.94512C13.1129 6.76342 13.2038 6.5716 13.1331 6.35962C13.0726 6.16782 12.8807 6.06687 12.5577 6.06687L9.4183 6.07698L8.4593 3.07887C8.36846 2.77604 8.21703 2.6246 7.99495 2.6246C7.78296 2.6246 7.63154 2.77604 7.54068 3.07887L6.58171 6.07698L3.44226 6.06687C3.11924 6.06687 2.91736 6.16782 2.85678 6.35962C2.79621 6.5716 2.88707 6.76342 3.14952 6.94512L5.70346 8.78234L4.7142 11.7703C4.61325 12.0732 4.64354 12.2852 4.81515 12.4063Z" fill="black"/>
</svg>
