<svg width="22" height="29" viewBox="0 0 22 29" fill="none" xmlns="http://www.w3.org/2000/svg">
  <path d="M11.008 18.3094C11.4713 18.3094 11.8867 17.9259 11.8867 17.4626V4.28179L11.8068 2.44444L12.7974 3.46695L14.8104 5.57588C14.9702 5.75165 15.1939 5.84749 15.4176 5.84749C15.8649 5.84749 16.2164 5.51198 16.2164 5.06462C16.2164 4.82498 16.1205 4.64924 15.9608 4.48946L11.647 0.287579C11.4234 0.0639025 11.2317 0 11.008 0C10.7843 0 10.5926 0.0639025 10.3689 0.287579L6.03923 4.48946C5.87945 4.64924 5.78358 4.82498 5.78358 5.06462C5.78358 5.51198 6.1191 5.84749 6.58242 5.84749C6.79013 5.84749 7.02977 5.75165 7.18954 5.57588L9.2026 3.46695L10.1932 2.42847L10.1293 4.28179V17.4626C10.1293 17.9259 10.5287 18.3094 11.008 18.3094ZM3.80246 28.0232H18.1815C20.7218 28.0232 22 26.7611 22 24.2687V11.6151C22 9.1387 20.7218 7.86058 18.1815 7.86058H14.6666V9.63399H18.1496C19.4597 9.63399 20.2266 10.337 20.2266 11.711V24.1728C20.2266 25.5468 19.4597 26.2498 18.1496 26.2498H3.83443C2.50834 26.2498 1.77341 25.5468 1.77341 24.1728V11.711C1.77341 10.337 2.50834 9.63399 3.83443 9.63399H7.34932V7.86058H3.80246C1.27815 7.86058 0 9.12274 0 11.6151V24.2687C0 26.7611 1.27815 28.0232 3.80246 28.0232Z" fill="black"/>
</svg>
