<svg width="51" height="49" viewBox="0 0 51 49" fill="none" xmlns="http://www.w3.org/2000/svg">
  <g clip-path="url(#clip0)">
    <path d="M44.6264 41.1142H31.0448V37.879H44.6264C45.2664 37.879 45.8802 37.6233 46.3327 37.1683C46.7853 36.7132 47.0395 36.0961 47.0395 35.4525V5.66162C47.0395 5.0181 46.7853 4.40093 46.3327 3.94589C45.8802 3.49085 45.2664 3.23521 44.6264 3.23521H16.2057C15.5657 3.23521 14.952 3.49085 14.4994 3.94589C14.0469 4.40093 13.7926 5.0181 13.7926 5.66162V10.416H10.5752V5.66162C10.5752 4.16007 11.1684 2.72001 12.2243 1.65825C13.2803 0.596491 14.7124 0 16.2057 0L44.6264 0C46.1197 0 47.5519 0.596491 48.6078 1.65825C49.6637 2.72001 50.257 4.16007 50.257 5.66162V35.4525C50.257 36.9541 49.6637 38.3942 48.6078 39.4559C47.5519 40.5177 46.1197 41.1142 44.6264 41.1142Z" fill="black"/>
    <path d="M4.20466 49.0011C3.9363 49.0018 3.67203 48.9351 3.4359 48.8069C3.19977 48.6786 2.99929 48.4931 2.85272 48.267C2.70615 48.041 2.61814 47.7817 2.5967 47.5127C2.57527 47.2437 2.62109 46.9736 2.73 46.727C2.74072 46.7028 3.78103 44.3424 4.48485 42.222C4.55456 42.009 4.61891 41.8014 4.69532 41.5979C5.16721 40.2148 5.50772 39.2159 5.40986 37.6442C5.29189 35.7394 4.13897 33.0097 3.11609 31.4083L2.75949 30.8543C1.63205 29.1019 0.816963 27.8266 0.500581 26.6364C-0.763604 21.8658 0.558227 18.2585 1.89078 16.0734C4.52104 11.7598 9.17158 8.75776 13.7377 8.43019C18.0276 8.1215 24.4625 9.70271 27.5029 11.8137C29.5889 13.2614 31.1306 15.6299 31.817 17.2178C32.557 18.9285 33.1576 22.0936 33.1576 23.2542C33.1466 23.816 33.087 24.3757 32.9793 24.9271C32.8385 25.7453 32.8023 26.085 32.9726 26.4099C33.2072 26.8601 33.7354 27.646 34.1992 28.3402C34.7972 29.2313 35.3146 30.001 35.5559 30.5294C36.5158 32.6188 34.7516 33.9533 33.9888 34.5235C33.8132 34.6583 33.663 34.7662 33.533 34.8619L33.3064 35.029C33.2957 35.0843 33.2836 35.1423 33.2729 35.1989C32.7648 37.8396 32.0664 40.7581 30.8022 42.3838C29.4616 44.0957 27.5552 44.7374 24.7896 44.4058C21.548 44.0175 19.3427 42.6871 19.2502 42.6304C18.8953 42.403 18.6431 42.0448 18.5478 41.6326C18.4524 41.2204 18.5215 40.7871 18.7402 40.4255C18.959 40.064 19.3099 39.803 19.7177 39.6986C20.1256 39.5942 20.5579 39.6547 20.9219 39.867C22.2427 40.5731 23.684 41.0226 25.1703 41.1921C27.4292 41.4617 27.9789 40.7608 28.2725 40.3833C29.2337 39.1526 29.8973 35.7111 30.1144 34.5869C30.1562 34.2888 30.2262 33.9954 30.3236 33.7107C30.6011 33.0124 31.0582 32.6768 31.636 32.2521C31.7567 32.1645 31.8961 32.0621 32.0583 31.9394C32.1575 31.8653 32.3358 31.7305 32.4806 31.6078C32.25 31.2223 31.8465 30.6211 31.5328 30.152C30.9966 29.3526 30.4415 28.5263 30.1252 27.921C29.4307 26.5946 29.6399 25.3692 29.8074 24.3838C29.883 24.013 29.9278 23.6365 29.9415 23.2583C29.9415 22.6382 29.4535 19.8653 28.869 18.5106C28.4816 17.6142 27.3153 15.6164 25.677 14.48C23.264 12.8058 17.4672 11.4106 13.9696 11.6614C10.4049 11.9175 6.74108 14.3142 4.63633 17.7678C3.63625 19.4124 2.6442 22.1408 3.61882 25.8033C3.80382 26.5002 4.57735 27.7053 5.47287 29.0992L5.82679 29.6572C7.06282 31.5903 8.46509 34.8497 8.6273 37.4406C8.76136 39.6554 8.24523 41.1759 7.74384 42.6466C7.67681 42.8407 7.60978 43.0389 7.54141 43.2424C6.788 45.5152 5.72088 47.9375 5.67664 48.0386C5.5504 48.3252 5.34407 48.5687 5.08275 48.7396C4.82143 48.9105 4.51637 49.0013 4.20466 49.0011Z" fill="black"/>
  </g>
  <defs>
    <clipPath id="clip0">
      <rect width="50.2564" height="49" fill="white"/>
    </clipPath>
  </defs>
</svg>
