<svg width="51" height="49" viewBox="0 0 51 49" fill="none" xmlns="http://www.w3.org/2000/svg">
  <g clip-path="url(#clip0)">
    <path d="M44.6267 41.1142H31.0451V37.879H44.6267C45.2667 37.879 45.8804 37.6233 46.333 37.1683C46.7855 36.7132 47.0398 36.0961 47.0398 35.4525V5.66162C47.0398 5.0181 46.7855 4.40093 46.333 3.94589C45.8804 3.49085 45.2667 3.23521 44.6267 3.23521H16.206C15.566 3.23521 14.9522 3.49085 14.4997 3.94589C14.0471 4.40093 13.7929 5.0181 13.7929 5.66162V10.416H10.5754V5.66162C10.5754 4.16007 11.1687 2.72001 12.2246 1.65825C13.2805 0.596491 14.7127 0 16.206 0L44.6267 0C46.12 0 47.5521 0.596491 48.6081 1.65825C49.664 2.72001 50.2572 4.16007 50.2572 5.66162V35.4525C50.2572 36.9541 49.664 38.3942 48.6081 39.4559C47.5521 40.5177 46.12 41.1142 44.6267 41.1142Z" fill="white"/>
    <path d="M4.2046 49.0013C3.93624 49.002 3.67197 48.9352 3.43584 48.807C3.19971 48.6788 2.99923 48.4932 2.85266 48.2672C2.70609 48.0412 2.61807 47.7818 2.59664 47.5129C2.57521 47.2439 2.62103 46.9738 2.72994 46.7272C2.74066 46.7029 3.78097 44.3426 4.48478 42.2221C4.5545 42.0092 4.61884 41.8016 4.69526 41.598C5.16715 40.215 5.50766 39.2161 5.4098 37.6443C5.29183 35.7396 4.13891 33.0099 3.11603 31.4084L2.75943 30.8544C1.63199 29.102 0.816902 27.8268 0.50052 26.6365C-0.763665 21.8659 0.558166 18.2587 1.89072 16.0735C4.52098 11.7599 9.17152 8.75791 13.7376 8.43035C18.0275 8.12165 24.4624 9.70286 27.5029 11.8138C29.5889 13.2616 31.1306 15.63 31.8169 17.218C32.5569 18.9286 33.1575 22.0937 33.1575 23.2544C33.1466 23.8161 33.0869 24.3759 32.9792 24.9272C32.8385 25.7455 32.8023 26.0852 32.9725 26.41C33.2071 26.8603 33.7353 27.6462 34.1992 28.3404C34.7971 29.2314 35.3146 30.0011 35.5559 30.5295C36.5157 32.619 34.7515 33.9535 33.9887 34.5237C33.8131 34.6585 33.6629 34.7663 33.5329 34.862L33.3063 35.0292C33.2956 35.0845 33.2836 35.1424 33.2728 35.199C32.7647 37.8398 32.0663 40.7582 30.8021 42.3839C29.4615 44.0959 27.5552 44.7375 24.7895 44.4059C21.5479 44.0177 19.3427 42.6872 19.2502 42.6306C18.8952 42.4032 18.643 42.045 18.5477 41.6328C18.4524 41.2206 18.5215 40.7873 18.7402 40.4257C18.9589 40.0641 19.3098 39.8032 19.7177 39.6988C20.1255 39.5944 20.5578 39.6548 20.9219 39.8672C22.2427 40.5732 23.6839 41.0228 25.1702 41.1923C27.4292 41.4619 27.9788 40.7609 28.2724 40.3835C29.2336 39.1527 29.8972 35.7113 30.1144 34.587C30.1561 34.2889 30.2262 33.9955 30.3235 33.7108C30.601 33.0126 31.0582 32.6769 31.636 32.2523C31.7566 32.1647 31.896 32.0622 32.0582 31.9396C32.1575 31.8654 32.3358 31.7306 32.4805 31.608C32.25 31.2224 31.8464 30.6212 31.5327 30.1521C30.9965 29.3527 30.4415 28.5264 30.1251 27.9212C29.4307 26.5947 29.6398 25.3694 29.8074 24.384C29.8829 24.0132 29.9278 23.6367 29.9414 23.2584C29.9414 22.6383 29.4535 19.8655 28.869 18.5107C28.4815 17.6143 27.3152 15.6166 25.677 14.4802C23.2639 12.806 17.4672 11.4108 13.9695 11.6615C10.4049 11.9176 6.74101 14.3144 4.63627 17.768C3.63618 19.4125 2.64414 22.1409 3.61876 25.8034C3.80376 26.5004 4.57729 27.7055 5.47281 29.0993L5.82673 29.6574C7.06276 31.5904 8.46503 34.8499 8.62724 37.4408C8.7613 39.6555 8.24517 41.1761 7.74378 42.6468C7.67675 42.8409 7.60972 43.039 7.54135 43.2426C6.78793 45.5153 5.72082 47.9377 5.67658 48.0388C5.55033 48.3254 5.34401 48.5689 5.08269 48.7398C4.82137 48.9106 4.51631 49.0015 4.2046 49.0013Z" fill="white"/>
  </g>
  <defs>
    <clipPath id="clip0">
      <rect width="50.2564" height="49" fill="white"/>
    </clipPath>
  </defs>
</svg>
