<svg width="74" height="58" viewBox="0 0 74 58" fill="none" xmlns="http://www.w3.org/2000/svg">
  <path d="M71.2092 35.7764C71.8374 34.7556 72.2802 33.7243 72.5332 32.688C73.9677 26.8043 72.6158 20.0983 72.5577 19.8153C72.4226 19.1589 71.987 18.6034 71.3806 18.3154C70.9836 18.1265 70.5441 18.0686 70.1197 18.136C70.6982 16.2606 70.8758 14.5122 70.6441 12.9098C69.778 6.9158 66.0194 1.19873 65.8603 0.958036C65.4889 0.399199 64.8769 0.0459568 64.2063 0.00416958C63.5345 -0.0376178 62.8845 0.236507 62.4462 0.744641C62.3803 0.820973 60.8151 2.64792 59.3515 5.21366C57.281 8.84247 56.4361 12.1024 56.8409 14.9028C56.8521 14.9813 56.8661 15.0599 56.8784 15.1384C56.4177 14.7896 56.1223 14.5857 56.072 14.5512C55.5231 14.1762 54.8318 14.077 54.1997 14.281C53.567 14.4854 53.0656 14.9707 52.8417 15.5953C52.8082 15.6895 52.0102 17.9332 51.5752 20.8282C50.9604 24.9228 51.3546 28.248 52.7473 30.7112C54.3086 33.4736 56.5846 35.8778 58.4262 37.5621C58.4419 37.7911 58.4598 38.0145 58.4787 38.2335C57.7266 38.6864 57.0598 39.1974 56.488 39.769C53.0544 43.2023 50.9476 47.9889 50.1915 49.9139C46.0979 52.4061 41.4006 53.721 36.5643 53.721C31.7575 53.721 27.0932 52.4245 23.018 49.9635C22.2798 48.073 20.1662 43.2329 16.7025 39.7696C16.1301 39.1974 15.4639 38.6864 14.7118 38.234C14.7307 38.0145 14.7486 37.7911 14.7642 37.5621C16.6092 35.8744 18.883 33.4708 20.4432 30.7117C21.8353 28.248 22.2301 24.9228 21.6147 20.8282C21.1803 17.9332 20.3823 15.6895 20.3483 15.5953C20.1243 14.9707 19.6229 14.4854 18.9908 14.281C18.3581 14.0765 17.6668 14.1762 17.1185 14.5512C17.0676 14.5857 16.7706 14.7908 16.3082 15.1412C16.3188 15.0732 16.3306 15.0058 16.3406 14.9384C16.7449 12.1381 15.9006 8.87813 13.83 5.24932C12.3659 2.68357 10.8007 0.857189 10.7348 0.7803C10.297 0.272166 9.64593 -0.00195926 8.97473 0.0398281C8.30409 0.0816154 7.69208 0.434858 7.3213 0.993694C7.1616 1.23439 3.40355 6.95146 2.53747 12.9454C2.30741 14.5367 2.47996 16.2712 3.04841 18.1315C2.63128 18.0697 2.2002 18.1293 1.80987 18.3148C1.20345 18.6034 0.767897 19.1589 0.632763 19.8153C0.57469 20.0978 -0.777201 26.8038 0.657333 32.688C0.910289 33.7238 1.3531 34.7551 1.9813 35.7764C1.31792 35.8271 0.715407 36.1809 0.350212 36.7369C-0.0172163 37.2969 -0.100418 37.9967 0.124618 38.6274C0.22178 38.8987 2.55255 45.3317 6.83661 49.6158C8.83904 51.6177 11.9398 52.8897 16.0536 53.395C17.5401 53.5783 18.888 53.624 19.8641 53.624C20.2215 53.624 20.5286 53.6179 20.7749 53.6095C25.5258 56.4845 30.9629 58 36.5643 58C42.1639 58 47.605 56.4828 52.3564 53.6079C52.6116 53.6162 52.9394 53.6235 53.3264 53.6235C54.3024 53.6235 55.6504 53.5778 57.1369 53.395C61.2506 52.8897 64.352 51.6177 66.3544 49.6158V49.6152C70.6385 45.3317 72.9687 38.8987 73.0659 38.6274C73.2909 37.9967 73.2077 37.2969 72.8403 36.7369C72.4751 36.1809 71.8726 35.8271 71.2092 35.7764ZM7.69152 36.0093C6.14252 34.5189 5.15359 33.0296 4.82413 31.6768C4.16912 28.9907 4.22608 25.9875 4.41594 23.799C5.63158 24.657 6.96448 25.7463 8.04164 26.9592C8.11367 27.0595 8.19464 27.1542 8.28454 27.2417C9.12215 28.2385 9.77436 29.3105 10.0402 30.4025C10.5115 32.3353 10.5963 34.4319 10.5371 36.2104C10.5176 36.3207 10.5081 36.4327 10.5064 36.5441C9.63029 36.3213 8.69106 36.143 7.69152 36.0093ZM17.1213 20.0092C17.6864 22.7242 17.9974 26.3269 16.7075 28.6096C16.115 29.657 15.3841 30.6538 14.6124 31.5692C14.5146 30.8405 14.3823 30.1106 14.207 29.3913C13.8864 28.0747 13.2566 26.767 12.3313 25.4772C12.3709 25.4109 12.4117 25.3407 12.453 25.2699C13.7993 23.1532 15.6482 21.3018 17.1213 20.0092ZM6.78133 13.5561C7.17612 10.8238 8.34764 8.06356 9.33992 6.10512C10.8627 8.46862 12.4687 11.747 12.0956 14.3278C11.7003 17.0623 10.5142 19.7941 9.51247 21.7208C8.00199 19.3941 6.40664 16.1502 6.78133 13.5561ZM9.87152 46.5932C7.91656 44.6386 6.40496 42.0434 5.42999 40.0743C7.32298 40.2069 9.57278 40.5591 11.4027 41.3408C11.5032 41.3954 11.6087 41.4433 11.7187 41.4817C12.4709 41.8339 13.1398 42.2651 13.6664 42.7916C15.6219 44.7467 17.1012 47.3342 18.0443 49.2904C15.2724 49.1032 11.7154 48.4368 9.87152 46.5932ZM62.6662 36.5486C62.5847 34.7027 62.6478 32.4601 63.1498 30.4031C63.4306 29.2497 64.1465 28.1159 65.0589 27.0696C65.0668 27.0606 65.0751 27.0517 65.0824 27.0428C66.1713 25.7998 67.5355 24.681 68.7773 23.8023C68.9672 25.9859 69.023 28.9818 68.3658 31.6768C68.0358 33.0301 67.0474 34.5189 65.4984 36.0093C64.4922 36.1435 63.5474 36.3235 62.6662 36.5486ZM63.8411 6.06891C64.8334 8.0279 66.0049 10.7887 66.3991 13.5204C66.7727 16.1023 65.1745 19.3517 63.6635 21.6829C62.664 19.7618 61.4818 17.0367 61.0854 14.2921C60.7123 11.7108 62.3183 8.4324 63.8411 6.06891ZM56.4825 28.609C55.1981 26.3374 55.5103 22.7287 56.0737 20.0092C57.5898 21.3391 59.5051 23.2619 60.8637 25.4699C59.9356 26.762 59.3041 28.0719 58.9824 29.3913C58.8071 30.11 58.6753 30.8399 58.5776 31.5692C57.8059 30.6544 57.0749 29.657 56.4825 28.609ZM63.3184 46.5932C61.4746 48.4368 57.917 49.1038 55.1456 49.2904C56.0893 47.3336 57.568 44.7467 59.5235 42.7916C61.0574 41.2578 63.7975 40.5318 66.2902 40.2175C66.5275 40.2315 66.7671 40.2036 66.9983 40.1384C67.2574 40.1128 67.512 40.0916 67.7599 40.0743C66.785 42.0434 65.2734 44.6386 63.3184 46.5932Z" fill="url(#paint0_linear)"/>
  <defs>
    <linearGradient id="paint0_linear" x1="36.5952" y1="0" x2="36.5952" y2="58" gradientUnits="userSpaceOnUse">
      <stop stop-color="#ADE1FF"/>
      <stop offset="0.495145" stop-color="#99C7E1"/>
      <stop offset="1" stop-color="#61ADD8"/>
    </linearGradient>
  </defs>
</svg>
