<svg width="68" height="55" viewBox="0 0 68 55" fill="none" xmlns="http://www.w3.org/2000/svg">
  <path d="M66.1594 33.3517C66.743 32.4012 67.1544 31.4409 67.3895 30.476C68.7223 24.9974 67.4662 18.7531 67.4123 18.4895C67.2867 17.8784 66.8821 17.3611 66.3186 17.0929C65.9498 16.917 65.5415 16.8631 65.1472 16.9259C65.6847 15.1796 65.8496 13.5516 65.6343 12.0595C64.8297 6.47821 61.3376 1.15477 61.1898 0.930647C60.8448 0.410288 60.2761 0.0813668 59.6531 0.0424567C59.0289 0.00354647 58.4251 0.258797 58.0178 0.731946C57.9566 0.803022 56.5024 2.50418 55.1426 4.89326C53.2189 8.27223 52.4339 11.3077 52.8101 13.9152C52.8204 13.9884 52.8334 14.0615 52.8448 14.1347C52.4168 13.8099 52.1424 13.62 52.0957 13.5879C51.5857 13.2387 50.9434 13.1464 50.3561 13.3363C49.7683 13.5267 49.3024 13.9785 49.0944 14.5601C49.0633 14.6478 48.3219 16.737 47.9177 19.4327C47.3465 23.2454 47.7128 26.3416 49.0067 28.6352C50.4573 31.2075 52.5719 33.4461 54.2829 35.0144C54.2975 35.2277 54.3141 35.4357 54.3317 35.6396C53.6329 36.0614 53.0134 36.5371 52.4822 37.0694C49.2921 40.2663 47.3346 44.7233 46.6322 46.5158C42.8288 48.8364 38.4646 50.0608 33.9713 50.0608C29.5054 50.0608 25.1719 48.8535 21.3857 46.562C20.6998 44.8017 18.7361 40.2948 15.518 37.0699C14.9862 36.5371 14.3673 36.0614 13.6685 35.6401C13.6861 35.4357 13.7027 35.2277 13.7172 35.0144C15.4314 33.443 17.5439 31.2049 18.9935 28.6358C20.2868 26.3416 20.6536 23.2454 20.0819 19.4327C19.6783 16.737 18.9369 14.6478 18.9053 14.5601C18.6972 13.9785 18.2313 13.5267 17.644 13.3363C17.0562 13.1459 16.414 13.2387 15.9045 13.5879C15.8573 13.62 15.5813 13.811 15.1517 14.1373C15.1616 14.074 15.1725 14.0112 15.1818 13.9485C15.5574 11.3409 14.773 8.30543 12.8493 4.92647C11.489 2.53738 10.0348 0.836744 9.97355 0.765149C9.56681 0.292001 8.96189 0.0367499 8.33829 0.0756601C7.7152 0.11457 7.1466 0.443491 6.80211 0.963851C6.65373 1.18797 3.16219 6.51141 2.35753 12.0927C2.14378 13.5744 2.30409 15.1894 2.83223 16.9217C2.44469 16.8641 2.04417 16.9196 1.68153 17.0924C1.11811 17.3611 0.713441 17.8784 0.587891 18.4895C0.533935 18.7526 -0.722086 24.9969 0.610718 30.476C0.845736 31.4404 1.25715 32.4007 1.8408 33.3517C1.22446 33.3989 0.664674 33.7283 0.325377 34.2461C-0.0159954 34.7675 -0.093297 35.4191 0.115781 36.0064C0.206052 36.259 2.37153 42.2491 6.35179 46.2382C8.21222 48.1023 11.0931 49.2867 14.9151 49.7573C16.2962 49.928 17.5486 49.9705 18.4555 49.9705C18.7875 49.9705 19.0728 49.9648 19.3016 49.957C23.7156 52.634 28.7672 54.0452 33.9713 54.0452C39.1738 54.0452 44.2291 52.6325 48.6436 49.9554C48.8806 49.9632 49.1852 49.97 49.5447 49.97C50.4516 49.97 51.704 49.9274 53.085 49.7573C56.907 49.2867 59.7885 48.1023 61.6489 46.2382V46.2377C65.6292 42.2491 67.7941 36.259 67.8844 36.0064C68.0935 35.4191 68.0162 34.7675 67.6748 34.2461C67.3355 33.7283 66.7757 33.3989 66.1594 33.3517ZM7.14608 33.5685C5.70692 32.1807 4.78812 30.794 4.48202 29.5343C3.87347 27.0332 3.92639 24.2368 4.10278 22.199C5.23221 22.9979 6.4706 24.0122 7.47137 25.1416C7.53829 25.235 7.61352 25.3232 7.69704 25.4047C8.47525 26.3328 9.08121 27.331 9.32816 28.3478C9.76603 30.1476 9.84489 32.0998 9.7899 33.7558C9.77174 33.8585 9.76292 33.9628 9.76136 34.0666C8.94736 33.8591 8.07473 33.6931 7.14608 33.5685ZM15.9071 18.6701C16.4321 21.1982 16.7211 24.5528 15.5227 26.6783C14.9722 27.6537 14.2931 28.5818 13.5761 29.4342C13.4853 28.7556 13.3624 28.076 13.1995 27.4062C12.9017 26.1803 12.3165 24.9626 11.4568 23.7616C11.4936 23.6999 11.5315 23.6345 11.5699 23.5686C12.8207 21.5977 14.5385 19.8737 15.9071 18.6701ZM6.30043 12.6613C6.66722 10.1171 7.75567 7.54694 8.67758 5.72335C10.0924 7.92411 11.5844 10.9767 11.2379 13.3798C10.8706 15.9261 9.76862 18.4698 8.83789 20.2638C7.43453 18.0973 5.95231 15.0768 6.30043 12.6613ZM9.17148 43.4237C7.35515 41.6038 5.95076 39.1872 5.04493 37.3537C6.80367 37.4772 8.89392 37.8051 10.594 38.533C10.6874 38.5838 10.7855 38.6284 10.8877 38.6642C11.5865 38.9921 12.208 39.3937 12.6973 39.8839C14.5141 41.7044 15.8884 44.1137 16.7647 45.9352C14.1893 45.7609 10.8846 45.1404 9.17148 43.4237ZM58.2222 34.0707C58.1465 32.3519 58.2051 30.2638 58.6715 28.3483C58.9324 27.2744 59.5976 26.2187 60.4453 25.2443C60.4525 25.236 60.4603 25.2277 60.4671 25.2194C61.4787 24.062 62.7462 23.0202 63.9 22.2021C64.0764 24.2353 64.1283 27.0249 63.5176 29.5343C63.211 30.7945 62.2927 32.1807 60.8536 33.5685C59.9187 33.6936 59.0409 33.8611 58.2222 34.0707ZM59.3138 5.68963C60.2357 7.51374 61.3241 10.0844 61.6904 12.6281C62.0375 15.0322 60.5527 18.0579 59.1488 20.2286C58.2201 18.4397 57.1218 15.9023 56.7535 13.3466C56.4069 10.943 57.899 7.89039 59.3138 5.68963ZM52.477 26.6778C51.2837 24.5626 51.5737 21.2024 52.0972 18.6701C53.5058 19.9085 55.2853 21.6988 56.5475 23.7549C55.6853 24.958 55.0985 26.1777 54.7997 27.4062C54.6368 28.0755 54.5143 28.7551 54.4235 29.4342C53.7065 28.5823 53.0274 27.6537 52.477 26.6778ZM58.8282 43.4237C57.1151 45.1404 53.8098 45.7614 51.235 45.9352C52.1117 44.1132 53.4855 41.7044 55.3024 39.8839C56.7275 38.4557 59.2733 37.7797 61.5892 37.4871C61.8097 37.5 62.0323 37.4741 62.2471 37.4134C62.4878 37.3895 62.7244 37.3698 62.9547 37.3537C62.0489 39.1872 60.6445 41.6038 58.8282 43.4237Z" fill="black" fill-opacity="0.06"/>
</svg>
