<svg width="106" height="84" viewBox="0 0 106 84" fill="none" xmlns="http://www.w3.org/2000/svg">
  <path d="M103.131 51.8141C104.04 50.3358 104.682 48.8421 105.048 47.3413C107.126 38.8201 105.168 29.1079 105.084 28.698C104.888 27.7474 104.257 26.9429 103.379 26.5257C102.804 26.2522 102.167 26.1683 101.553 26.2659C102.391 23.5498 102.648 21.0176 102.312 18.6969C101.058 10.016 95.6143 1.73609 95.3838 1.3875C94.846 0.578151 93.9596 0.0665582 92.9884 0.0060387C92.0155 -0.054481 91.0741 0.342528 90.4393 1.07845C90.3439 1.189 88.077 3.83491 85.9574 7.55082C82.9586 12.8063 81.735 17.5277 82.3214 21.5833C82.3375 21.6971 82.3577 21.8109 82.3755 21.9246C81.7083 21.4195 81.2805 21.1242 81.2077 21.0741C80.4128 20.5311 79.4116 20.3874 78.4961 20.6828C77.5798 20.9789 76.8536 21.6817 76.5293 22.5863C76.4808 22.7227 75.3251 25.9722 74.6951 30.165C73.8047 36.0951 74.3757 40.9108 76.3926 44.4783C78.6538 48.479 81.9501 51.9609 84.6173 54.4003C84.64 54.7319 84.6658 55.0555 84.6933 55.3726C83.604 56.0286 82.6384 56.7686 81.8102 57.5965C76.8374 62.5688 73.7861 69.5011 72.6911 72.289C66.7624 75.8984 59.9594 77.8028 52.9551 77.8028C45.9937 77.8028 39.2384 75.9251 33.3364 72.3609C32.2673 69.623 29.2062 62.6132 24.1898 57.5973C23.3608 56.7686 22.396 56.0286 21.3067 55.3734C21.3342 55.0555 21.36 54.7319 21.3827 54.4003C24.0547 51.9561 27.3478 48.475 29.6074 44.4791C31.6235 40.9108 32.1953 36.0951 31.3041 30.165C30.6749 25.9722 29.5192 22.7227 29.4699 22.5863C29.1456 21.6817 28.4194 20.9789 27.5039 20.6828C26.5876 20.3866 25.5864 20.5311 24.7923 21.0741C24.7187 21.1242 24.2884 21.4211 23.6188 21.9287C23.6342 21.8302 23.6511 21.7326 23.6657 21.6349C24.2512 17.5793 23.0284 12.858 20.0297 7.60246C17.9092 3.88656 15.6424 1.24145 15.547 1.13009C14.9129 0.394171 13.97 -0.00283755 12.9979 0.0576821C12.0266 0.118202 11.1403 0.629794 10.6033 1.43914C10.372 1.78774 4.92928 10.0676 3.67496 18.7486C3.34177 21.0531 3.59166 23.5651 4.41494 26.2594C3.81082 26.1699 3.18649 26.2562 2.6212 26.5249C1.74293 26.9429 1.11213 27.7474 0.916416 28.698C0.832309 29.1071 -1.1256 38.8193 0.952 47.3413C1.31835 48.8413 1.95966 50.335 2.86947 51.8141C1.90872 51.8875 1.03611 52.3999 0.507204 53.2052C-0.024934 54.0162 -0.145433 55.0297 0.180481 55.9431C0.321198 56.3361 3.6968 65.6529 9.90129 71.8573C12.8014 74.7566 17.2922 76.5989 23.25 77.3307C25.4028 77.5962 27.3551 77.6624 28.7687 77.6624C29.2863 77.6624 29.7311 77.6535 30.0878 77.6414C36.9683 81.8052 44.8428 84 52.9551 84C61.065 84 68.9451 81.8027 75.8265 77.639C76.1961 77.6511 76.6708 77.6616 77.2313 77.6616C78.6449 77.6616 80.5972 77.5954 82.75 77.3307C88.7078 76.5989 93.1994 74.7566 96.0995 71.8573V71.8565C102.304 65.6529 105.679 56.3361 105.82 55.9431C106.145 55.0297 106.025 54.0162 105.493 53.2052C104.964 52.3999 104.091 51.8875 103.131 51.8141ZM11.1394 52.1514C8.89606 49.9928 7.46381 47.8359 6.98667 45.8767C6.03804 41.9865 6.12053 37.6371 6.39549 34.4675C8.15608 35.7102 10.0865 37.2877 11.6465 39.0444C11.7508 39.1897 11.8681 39.3268 11.9983 39.4535C13.2114 40.8971 14.156 42.4497 14.5409 44.0312C15.2235 46.8305 15.3464 49.8669 15.2607 52.4426C15.2324 52.6024 15.2186 52.7646 15.2162 52.926C13.9473 52.6032 12.5871 52.345 11.1394 52.1514ZM24.7963 28.9788C25.6147 32.911 26.0652 38.1286 24.197 41.4345C23.339 42.9516 22.2804 44.3952 21.1627 45.7209C21.0212 44.6655 20.8295 43.6084 20.5756 42.5667C20.1114 40.6599 19.1991 38.766 17.8591 36.898C17.9165 36.802 17.9756 36.7003 18.0354 36.5978C19.9852 33.5323 22.6629 30.8509 24.7963 28.9788ZM9.82123 19.633C10.393 15.6758 12.0897 11.6783 13.5268 8.8419C15.7322 12.2649 18.058 17.0129 17.5178 20.7505C16.9452 24.711 15.2275 28.6673 13.7767 31.4577C11.5891 28.0879 9.27858 23.39 9.82123 19.633ZM14.2967 67.4798C11.4654 64.6491 9.27615 60.8904 7.86413 58.0387C10.6057 58.2307 13.864 58.7407 16.5142 59.8728C16.6598 59.9519 16.8126 60.0213 16.9719 60.077C18.0613 60.587 19.0301 61.2115 19.7927 61.9741C22.6249 64.8056 24.7672 68.553 26.1331 71.3861C22.1186 71.115 16.9671 70.1499 14.2967 67.4798ZM90.7579 52.9325C90.6398 50.2591 90.7312 47.0112 91.4583 44.032C91.8651 42.3617 92.9018 40.7196 94.2233 39.2042C94.2346 39.1913 94.2467 39.1784 94.2572 39.1655C95.8343 37.3652 97.81 35.7449 99.6086 34.4724C99.8835 37.6347 99.9644 41.9736 99.0125 45.8767C98.5346 47.8367 97.1031 49.9928 94.8597 52.1514C93.4024 52.3458 92.0341 52.6065 90.7579 52.9325ZM92.4595 8.78945C93.8966 11.6266 95.5933 15.6249 96.1642 19.5813C96.7052 23.3206 94.3907 28.0266 92.2023 31.4028C90.7547 28.6205 89.0426 24.6738 88.4684 20.6989C87.9282 16.9604 90.2541 12.2124 92.4595 8.78945ZM81.8022 41.4337C79.9421 38.1439 80.3942 32.9174 81.2102 28.9788C83.4058 30.9049 86.1798 33.6896 88.1474 36.8875C86.8033 38.7588 85.8886 40.6559 85.4228 42.5667C85.1689 43.6076 84.978 44.6647 84.8365 45.7209C83.7188 44.396 82.6602 42.9516 81.8022 41.4337ZM91.7025 67.4798C89.0321 70.1499 83.8798 71.1158 79.8661 71.3861C81.2328 68.5522 83.3743 64.8056 86.2064 61.9741C88.428 59.7526 92.3964 58.7012 96.0065 58.2461C96.3502 58.2663 96.6972 58.2259 97.032 58.1315C97.4072 58.0944 97.776 58.0637 98.1351 58.0387C96.723 60.8904 94.5338 64.6491 91.7025 67.4798Z" fill="url(#paint0_linear)"/>
  <defs>
    <linearGradient id="paint0_linear" x1="53" y1="0" x2="53" y2="84" gradientUnits="userSpaceOnUse">
      <stop stop-color="#FFA14A"/>
      <stop offset="1" stop-color="#FFC700"/>
    </linearGradient>
  </defs>
</svg>
