<svg width="32" height="24" viewBox="0 0 32 24" fill="none" xmlns="http://www.w3.org/2000/svg">
  <path d="M31.3622 4.24754C31.1812 3.56676 30.8247 2.94543 30.3282 2.44575C29.8317 1.94606 29.2127 1.58554 28.5331 1.40027C26.0312 0.727539 16.0312 0.727539 16.0312 0.727539C16.0312 0.727539 6.03125 0.727539 3.52943 1.40027C2.84982 1.58554 2.2308 1.94606 1.7343 2.44575C1.2378 2.94543 0.881257 3.56676 0.700341 4.24754C0.0312501 6.76027 0.03125 12.0003 0.03125 12.0003C0.03125 12.0003 0.0312501 17.2403 0.700341 19.753C0.881257 20.4338 1.2378 21.0551 1.7343 21.5548C2.2308 22.0545 2.84982 22.415 3.52943 22.6003C6.03125 23.273 16.0312 23.273 16.0312 23.273C16.0312 23.273 26.0312 23.273 28.5331 22.6003C29.2127 22.415 29.8317 22.0545 30.3282 21.5548C30.8247 21.0551 31.1812 20.4338 31.3622 19.753C32.0313 17.2403 32.0312 12.0003 32.0312 12.0003C32.0312 12.0003 32.0313 6.76027 31.3622 4.24754Z" fill="#c4c4c4"/>
  <path d="M12.7588 16.7581V7.2417L21.1224 11.9999L12.7588 16.7581Z" fill="#FEFEFE"/>
</svg>
